<mxfile host="app.diagrams.net" modified="2023-04-17T02:32:23.143Z" agent="Mozilla/5.0 (Macintosh; Intel Mac OS X 10_15_7) AppleWebKit/537.36 (KHTML, like Gecko) Chrome/112.0.0.0 Safari/537.36" version="21.1.8" etag="A4a48hm60GKK4VBIVdZK" type="github">
  <diagram name="第 1 页" id="MnmHD803rKsfR9xc3XTJ">
    <mxGraphModel>
      <root>
        <mxCell id="0" />
        <mxCell id="1" parent="0" />
      </root>
    </mxGraphModel>
  </diagram>
</mxfile>
